<svg width="38" height="15" viewBox="0 0 38 15" fill="none" xmlns="http://www.w3.org/2000/svg">
<path d="M12.9815 4.20168H16.0234L10.7323 14.7059H8.09739L7.26195 8.36135L4.30576 14.7059H1.52094L0 4.20168H2.7634L3.53458 10.6513L6.53361 4.20168H9.21132L10.0468 10.6723L12.9815 4.20168Z" fill="#E1FF00"/>
<path d="M28.1832 0H30.9466L23.9777 14.7059H21.3429L20.5074 8.36135L17.5512 14.7059H14.7664L13.2455 4.20168H16.0089L16.78 10.6513L19.7791 4.20168H22.4568L23.2922 10.6723L28.1832 0Z" fill="#E1FF00"/>
<path d="M33.5387 3.90756C35.0667 3.90756 36.2378 4.48179 37.0518 5.63025C37.8801 6.76471 38.1657 8.09524 37.9087 9.62185C37.6659 11.1064 37.0018 12.374 35.9165 13.4244C34.8311 14.4748 33.4958 15 31.9106 15C30.3682 15 29.2543 14.4258 28.5688 13.2773L28.3118 14.7059H25.5484L28.1832 0H30.9466L29.9827 5.33613C30.9538 4.38375 32.1391 3.90756 33.5387 3.90756ZM35.1453 9.43277C35.3024 8.55042 35.1524 7.84314 34.6954 7.31092C34.2527 6.76471 33.6029 6.4916 32.7461 6.4916C31.8892 6.4916 31.1323 6.76471 30.4754 7.31092C29.8184 7.85714 29.4114 8.57143 29.2543 9.45378C29.0972 10.3361 29.2543 11.0504 29.7256 11.5966C30.1969 12.1429 30.8609 12.416 31.7178 12.416C32.5747 12.416 33.3244 12.1429 33.9671 11.5966C34.6097 11.0364 35.0025 10.3151 35.1453 9.43277Z" fill="white"/>
</svg>
