<svg width="89" height="30" viewBox="0 0 89 30" fill="none" xmlns="http://www.w3.org/2000/svg">
<path d="M19.889 18.889L12.111 11.111M21.5 15C21.5 18.0376 19.0376 20.5 16 20.5C12.9624 20.5 10.5 18.0376 10.5 15C10.5 11.9624 12.9624 9.5 16 9.5C19.0376 9.5 21.5 11.9624 21.5 15Z" stroke="#E1FF00" stroke-width="1.3" stroke-miterlimit="10" stroke-linecap="round"/>
<path d="M37.614 19.182C36.1393 19.182 34.9167 18.6967 33.946 17.726C32.9753 16.746 32.49 15.5373 32.49 14.1C32.49 12.6627 32.9753 11.4587 33.946 10.488C34.9167 9.508 36.1393 9.018 37.614 9.018C38.5007 9.018 39.3173 9.228 40.064 9.648C40.82 10.068 41.408 10.6373 41.828 11.356L40.428 12.168C40.1667 11.6827 39.784 11.3 39.28 11.02C38.7853 10.7307 38.23 10.586 37.614 10.586C36.5687 10.586 35.7193 10.9173 35.066 11.58C34.422 12.2427 34.1 13.0827 34.1 14.1C34.1 15.1173 34.422 15.9573 35.066 16.62C35.7193 17.2827 36.5687 17.614 37.614 17.614C38.23 17.614 38.79 17.474 39.294 17.194C39.798 16.9047 40.176 16.5173 40.428 16.032L41.828 16.83C41.4173 17.5487 40.834 18.1227 40.078 18.552C39.3313 18.972 38.51 19.182 37.614 19.182ZM48.5979 12H50.1099V19H48.5979V17.992C48.0285 18.7853 47.2119 19.182 46.1479 19.182C45.1865 19.182 44.3652 18.8273 43.6839 18.118C43.0025 17.3993 42.6619 16.5267 42.6619 15.5C42.6619 14.464 43.0025 13.5913 43.6839 12.882C44.3652 12.1727 45.1865 11.818 46.1479 11.818C47.2119 11.818 48.0285 12.21 48.5979 12.994V12ZM44.8039 17.11C45.2239 17.53 45.7512 17.74 46.3859 17.74C47.0205 17.74 47.5479 17.53 47.9679 17.11C48.3879 16.6807 48.5979 16.144 48.5979 15.5C48.5979 14.856 48.3879 14.324 47.9679 13.904C47.5479 13.4747 47.0205 13.26 46.3859 13.26C45.7512 13.26 45.2239 13.4747 44.8039 13.904C44.3839 14.324 44.1739 14.856 44.1739 15.5C44.1739 16.144 44.3839 16.6807 44.8039 17.11ZM55.5542 11.818C56.3569 11.818 57.0056 12.0747 57.5002 12.588C57.9949 13.1013 58.2422 13.806 58.2422 14.702V19H56.7302V14.856C56.7302 14.3333 56.5902 13.932 56.3102 13.652C56.0302 13.372 55.6476 13.232 55.1622 13.232C54.6302 13.232 54.2009 13.4 53.8742 13.736C53.5476 14.0627 53.3842 14.5667 53.3842 15.248V19H51.8722V12H53.3842V12.896C53.8416 12.1773 54.5649 11.818 55.5542 11.818ZM63.1743 19.182C62.1196 19.182 61.2376 18.8273 60.5283 18.118C59.8283 17.4087 59.4783 16.536 59.4783 15.5C59.4783 14.4547 59.8283 13.582 60.5283 12.882C61.2376 12.1727 62.1196 11.818 63.1743 11.818C63.8556 11.818 64.4763 11.9813 65.0363 12.308C65.5963 12.6347 66.0163 13.0733 66.2963 13.624L64.9943 14.38C64.8356 14.044 64.5929 13.7827 64.2663 13.596C63.9489 13.4 63.5803 13.302 63.1603 13.302C62.5443 13.302 62.0263 13.512 61.6063 13.932C61.1956 14.352 60.9903 14.8747 60.9903 15.5C60.9903 16.1253 61.1956 16.648 61.6063 17.068C62.0263 17.488 62.5443 17.698 63.1603 17.698C63.5709 17.698 63.9396 17.6 64.2663 17.404C64.6023 17.208 64.8543 16.9467 65.0223 16.62L66.3243 17.362C66.0256 17.922 65.5963 18.3653 65.0363 18.692C64.4763 19.0187 63.8556 19.182 63.1743 19.182ZM68.4978 16.144C68.6098 16.676 68.8664 17.0867 69.2678 17.376C69.6691 17.656 70.1591 17.796 70.7378 17.796C71.5404 17.796 72.1424 17.5067 72.5438 16.928L73.7898 17.656C73.0991 18.6733 72.0771 19.182 70.7238 19.182C69.5851 19.182 68.6658 18.8367 67.9658 18.146C67.2658 17.446 66.9158 16.564 66.9158 15.5C66.9158 14.4547 67.2611 13.582 67.9518 12.882C68.6424 12.1727 69.5291 11.818 70.6118 11.818C71.6384 11.818 72.4784 12.1773 73.1318 12.896C73.7944 13.6147 74.1258 14.4873 74.1258 15.514C74.1258 15.6727 74.1071 15.8827 74.0698 16.144H68.4978ZM68.4838 14.912H72.5998C72.4971 14.3427 72.2591 13.9133 71.8858 13.624C71.5218 13.3347 71.0924 13.19 70.5978 13.19C70.0378 13.19 69.5711 13.344 69.1978 13.652C68.8244 13.96 68.5864 14.38 68.4838 14.912ZM75.4562 19V8.78H76.9682V19H75.4562Z" fill="#E1FF00"/>
</svg>
