<svg width="89" height="30" viewBox="0 0 89 30" fill="none" xmlns="http://www.w3.org/2000/svg">
<path d="M16 20.5C19.0376 20.5 21.5 18.0376 21.5 15C21.5 11.9624 19.0376 9.5 16 9.5M16 20.5C12.9624 20.5 10.5 18.0376 10.5 15C10.5 11.9624 12.9624 9.5 16 9.5M16 20.5V9.5M19.6666 10.9008V19.0992M17.8334 9.81335V20.1866" stroke="#A9A9A9" stroke-linecap="round" stroke-linejoin="round"/>
<path d="M38.566 19L36.494 15.43H34.59V19H32.98V9.2H36.9C37.7773 9.2 38.5193 9.508 39.126 10.124C39.742 10.7307 40.05 11.4727 40.05 12.35C40.05 12.9753 39.868 13.5493 39.504 14.072C39.1493 14.5853 38.6827 14.9587 38.104 15.192L40.33 19H38.566ZM34.59 10.712V13.988H36.9C37.3293 13.988 37.6933 13.8293 37.992 13.512C38.2907 13.1947 38.44 12.8073 38.44 12.35C38.44 11.8927 38.2907 11.5053 37.992 11.188C37.6933 10.8707 37.3293 10.712 36.9 10.712H34.59ZM42.2888 16.144C42.4008 16.676 42.6575 17.0867 43.0588 17.376C43.4601 17.656 43.9501 17.796 44.5288 17.796C45.3315 17.796 45.9335 17.5067 46.3348 16.928L47.5808 17.656C46.8901 18.6733 45.8681 19.182 44.5148 19.182C43.3761 19.182 42.4568 18.8367 41.7568 18.146C41.0568 17.446 40.7068 16.564 40.7068 15.5C40.7068 14.4547 41.0521 13.582 41.7428 12.882C42.4335 12.1727 43.3201 11.818 44.4028 11.818C45.4295 11.818 46.2695 12.1773 46.9228 12.896C47.5855 13.6147 47.9168 14.4873 47.9168 15.514C47.9168 15.6727 47.8981 15.8827 47.8608 16.144H42.2888ZM42.2748 14.912H46.3908C46.2881 14.3427 46.0501 13.9133 45.6768 13.624C45.3128 13.3347 44.8835 13.19 44.3888 13.19C43.8288 13.19 43.3621 13.344 42.9888 13.652C42.6155 13.96 42.3775 14.38 42.2748 14.912ZM52.9292 11.818C53.7319 11.818 54.3806 12.0747 54.8752 12.588C55.3699 13.1013 55.6172 13.806 55.6172 14.702V19H54.1052V14.856C54.1052 14.3333 53.9652 13.932 53.6852 13.652C53.4052 13.372 53.0226 13.232 52.5372 13.232C52.0052 13.232 51.5759 13.4 51.2492 13.736C50.9226 14.0627 50.7592 14.5667 50.7592 15.248V19H49.2472V12H50.7592V12.896C51.2166 12.1773 51.9399 11.818 52.9292 11.818ZM62.7893 9.2H64.3013V19H62.7893V17.992C62.2199 18.7853 61.4033 19.182 60.3393 19.182C59.3779 19.182 58.5566 18.8273 57.8753 18.118C57.1939 17.3993 56.8533 16.5267 56.8533 15.5C56.8533 14.464 57.1939 13.5913 57.8753 12.882C58.5566 12.1727 59.3779 11.818 60.3393 11.818C61.4033 11.818 62.2199 12.21 62.7893 12.994V9.2ZM58.9953 17.11C59.4153 17.53 59.9426 17.74 60.5773 17.74C61.2119 17.74 61.7393 17.53 62.1593 17.11C62.5793 16.6807 62.7893 16.144 62.7893 15.5C62.7893 14.856 62.5793 14.324 62.1593 13.904C61.7393 13.4747 61.2119 13.26 60.5773 13.26C59.9426 13.26 59.4153 13.4747 58.9953 13.904C58.5753 14.324 58.3653 14.856 58.3653 15.5C58.3653 16.144 58.5753 16.6807 58.9953 17.11ZM67.2536 16.144C67.3656 16.676 67.6223 17.0867 68.0236 17.376C68.425 17.656 68.915 17.796 69.4936 17.796C70.2963 17.796 70.8983 17.5067 71.2996 16.928L72.5456 17.656C71.855 18.6733 70.833 19.182 69.4796 19.182C68.341 19.182 67.4216 18.8367 66.7216 18.146C66.0216 17.446 65.6716 16.564 65.6716 15.5C65.6716 14.4547 66.017 13.582 66.7076 12.882C67.3983 12.1727 68.285 11.818 69.3676 11.818C70.3943 11.818 71.2343 12.1773 71.8876 12.896C72.5503 13.6147 72.8816 14.4873 72.8816 15.514C72.8816 15.6727 72.863 15.8827 72.8256 16.144H67.2536ZM67.2396 14.912H71.3556C71.253 14.3427 71.015 13.9133 70.6416 13.624C70.2776 13.3347 69.8483 13.19 69.3536 13.19C68.7936 13.19 68.327 13.344 67.9536 13.652C67.5803 13.96 67.3423 14.38 67.2396 14.912ZM75.7241 13.176C76.1067 12.308 76.8254 11.874 77.8801 11.874V13.512C77.3014 13.4747 76.7974 13.6147 76.3681 13.932C75.9387 14.24 75.7241 14.7533 75.7241 15.472V19H74.2121V12H75.7241V13.176Z" fill="#A9A9A9"/>
</svg>
