<svg width="86" height="30" viewBox="0 0 86 30" fill="none" xmlns="http://www.w3.org/2000/svg">
<path d="M14.626 9.67546C15.5271 9.44151 16.473 9.44151 17.3741 9.67546H14.626Z" fill="#D9D9D9"/>
<path d="M10.7036 13.5286C10.9517 12.6315 11.4247 11.8125 12.0777 11.1492L10.7036 13.5286Z" fill="#D9D9D9"/>
<path d="M12.0777 18.8514C11.4245 18.1878 10.9515 17.3684 10.7036 16.4708L12.0777 18.8514Z" fill="#D9D9D9"/>
<path d="M17.3741 20.3245C16.473 20.5584 15.5271 20.5584 14.626 20.3245H17.3741Z" fill="#D9D9D9"/>
<path d="M21.2964 16.4714C21.0483 17.3686 20.5754 18.1876 19.9224 18.8509L21.2964 16.4714Z" fill="#D9D9D9"/>
<path d="M19.9224 11.1487C20.5755 11.8123 21.0485 12.6317 21.2964 13.5293L19.9224 11.1487Z" fill="#D9D9D9"/>
<path d="M14.626 9.67546C15.5271 9.44151 16.473 9.44151 17.3741 9.67546M10.7036 13.5286C10.9517 12.6315 11.4247 11.8125 12.0777 11.1492M12.0777 18.8514C11.4245 18.1878 10.9515 17.3684 10.7036 16.4708M17.3741 20.3245C16.473 20.5584 15.5271 20.5584 14.626 20.3245M21.2964 16.4714C21.0483 17.3686 20.5754 18.1876 19.9224 18.8509M19.9224 11.1487C20.5755 11.8123 21.0485 12.6317 21.2964 13.5293" stroke="#E1FF00" stroke-width="1.5" stroke-linecap="round" stroke-linejoin="round"/>
<path d="M36.242 19.182C35.2993 19.182 34.4967 18.9673 33.834 18.538C33.1807 18.1087 32.7233 17.5207 32.462 16.774L33.848 15.962C34.24 17.0633 35.052 17.614 36.284 17.614C36.8907 17.614 37.3433 17.4973 37.642 17.264C37.95 17.0213 38.104 16.7087 38.104 16.326C38.104 15.9247 37.9407 15.6213 37.614 15.416C37.2873 15.2013 36.7087 14.968 35.878 14.716C35.4113 14.576 35.0333 14.4453 34.744 14.324C34.4547 14.2027 34.1467 14.0347 33.82 13.82C33.5027 13.596 33.2647 13.3207 33.106 12.994C32.9473 12.6673 32.868 12.2847 32.868 11.846C32.868 10.978 33.176 10.292 33.792 9.788C34.408 9.27467 35.15 9.018 36.018 9.018C36.802 9.018 37.488 9.20933 38.076 9.592C38.664 9.97467 39.1167 10.502 39.434 11.174L38.076 11.958C37.6653 11.0433 36.9793 10.586 36.018 10.586C35.5513 10.586 35.178 10.698 34.898 10.922C34.618 11.1367 34.478 11.4307 34.478 11.804C34.478 12.168 34.618 12.4573 34.898 12.672C35.1873 12.8773 35.7053 13.0967 36.452 13.33C36.8253 13.4513 37.096 13.5447 37.264 13.61C37.4413 13.666 37.684 13.7593 37.992 13.89C38.3093 14.0207 38.5473 14.1513 38.706 14.282C38.8647 14.4127 39.0327 14.576 39.21 14.772C39.3967 14.968 39.5273 15.192 39.602 15.444C39.6767 15.696 39.714 15.9807 39.714 16.298C39.714 17.1847 39.392 17.8893 38.748 18.412C38.1133 18.9253 37.278 19.182 36.242 19.182ZM47.2048 19H45.3988L42.5288 15.766V19H41.0168V9.2H42.5288V15.094L45.2448 12H47.0928L44.0128 15.43L47.2048 19ZM48.8513 16.144C48.9633 16.676 49.22 17.0867 49.6213 17.376C50.0226 17.656 50.5126 17.796 51.0913 17.796C51.894 17.796 52.496 17.5067 52.8973 16.928L54.1433 17.656C53.4526 18.6733 52.4306 19.182 51.0773 19.182C49.9386 19.182 49.0193 18.8367 48.3193 18.146C47.6193 17.446 47.2693 16.564 47.2693 15.5C47.2693 14.4547 47.6146 13.582 48.3053 12.882C48.996 12.1727 49.8826 11.818 50.9653 11.818C51.992 11.818 52.832 12.1773 53.4853 12.896C54.148 13.6147 54.4793 14.4873 54.4793 15.514C54.4793 15.6727 54.4606 15.8827 54.4233 16.144H48.8513ZM48.8373 14.912H52.9533C52.8506 14.3427 52.6126 13.9133 52.2393 13.624C51.8753 13.3347 51.446 13.19 50.9513 13.19C50.3913 13.19 49.9246 13.344 49.5513 13.652C49.178 13.96 48.94 14.38 48.8373 14.912ZM59.497 13.456H57.761V16.816C57.761 17.1053 57.8263 17.3153 57.957 17.446C58.0877 17.5673 58.279 17.6373 58.531 17.656C58.7923 17.6653 59.1143 17.6607 59.497 17.642V19C58.3397 19.14 57.509 19.042 57.005 18.706C56.501 18.3607 56.249 17.7307 56.249 16.816V13.456H54.961V12H56.249V10.488L57.761 10.04V12H59.497V13.456ZM63.8852 19.182C62.8306 19.182 61.9486 18.8273 61.2392 18.118C60.5392 17.4087 60.1892 16.536 60.1892 15.5C60.1892 14.4547 60.5392 13.582 61.2392 12.882C61.9486 12.1727 62.8306 11.818 63.8852 11.818C64.5666 11.818 65.1872 11.9813 65.7472 12.308C66.3072 12.6347 66.7272 13.0733 67.0072 13.624L65.7052 14.38C65.5466 14.044 65.3039 13.7827 64.9772 13.596C64.6599 13.4 64.2912 13.302 63.8712 13.302C63.2552 13.302 62.7372 13.512 62.3172 13.932C61.9066 14.352 61.7012 14.8747 61.7012 15.5C61.7012 16.1253 61.9066 16.648 62.3172 17.068C62.7372 17.488 63.2552 17.698 63.8712 17.698C64.2819 17.698 64.6506 17.6 64.9772 17.404C65.3132 17.208 65.5652 16.9467 65.7332 16.62L67.0352 17.362C66.7366 17.922 66.3072 18.3653 65.7472 18.692C65.1872 19.0187 64.5666 19.182 63.8852 19.182ZM71.8101 11.818C72.6128 11.818 73.2614 12.0747 73.7561 12.588C74.2508 13.1013 74.4981 13.806 74.4981 14.702V19H72.9861V14.856C72.9861 14.3333 72.8461 13.932 72.5661 13.652C72.2861 13.372 71.9034 13.232 71.4181 13.232C70.8861 13.232 70.4568 13.4 70.1301 13.736C69.8034 14.0627 69.6401 14.5667 69.6401 15.248V19H68.1281V9.2H69.6401V12.896C70.0974 12.1773 70.8208 11.818 71.8101 11.818Z" fill="#E1FF00"/>
</svg>
