<svg width="85" height="30" viewBox="0 0 85 30" fill="none" xmlns="http://www.w3.org/2000/svg">
<path d="M19 14.1667H20.5C20.6326 14.1667 20.7598 14.2106 20.8536 14.2887C20.9473 14.3668 21 14.4728 21 14.5833V19.5833C21 19.6938 20.9473 19.7998 20.8536 19.878C20.7598 19.9561 20.6326 20 20.5 20H11.5C11.3674 20 11.2402 19.9561 11.1464 19.878C11.0527 19.7998 11 19.6938 11 19.5833V14.5833C11 14.4728 11.0527 14.3668 11.1464 14.2887C11.2402 14.2106 11.3674 14.1667 11.5 14.1667H13M13.5 12.0833L16 10M16 10L18.5 12.0833M16 10L16 15.8333" stroke="#A9A9A9" stroke-width="1.4" stroke-linejoin="round"/>
<path d="M34.59 17.46H38.93V19H32.98V9.2H38.86V10.74H34.59V13.288H38.51V14.814H34.59V17.46ZM46.5638 19H44.8138L43.0778 16.606L41.3278 19H39.5638L42.1958 15.402L39.7038 12H41.4538L43.0638 14.212L44.6738 12H46.4378L43.9458 15.416L46.5638 19ZM51.5413 11.818C52.5026 11.818 53.3239 12.1773 54.0053 12.896C54.6866 13.6053 55.0273 14.4733 55.0273 15.5C55.0273 16.536 54.6866 17.4087 54.0053 18.118C53.3239 18.8273 52.5026 19.182 51.5413 19.182C50.4773 19.182 49.6606 18.79 49.0913 18.006V21.8H47.5793V12H49.0913V13.008C49.6606 12.2147 50.4773 11.818 51.5413 11.818ZM49.7213 17.11C50.1413 17.53 50.6686 17.74 51.3033 17.74C51.9379 17.74 52.4653 17.53 52.8853 17.11C53.3053 16.6807 53.5153 16.144 53.5153 15.5C53.5153 14.856 53.3053 14.324 52.8853 13.904C52.4653 13.4747 51.9379 13.26 51.3033 13.26C50.6686 13.26 50.1413 13.4747 49.7213 13.904C49.3013 14.324 49.0913 14.856 49.0913 15.5C49.0913 16.144 49.3013 16.6807 49.7213 17.11ZM59.7016 19.182C58.675 19.182 57.8023 18.8273 57.0836 18.118C56.365 17.4087 56.0056 16.536 56.0056 15.5C56.0056 14.464 56.365 13.5913 57.0836 12.882C57.8023 12.1727 58.675 11.818 59.7016 11.818C60.7376 11.818 61.6103 12.1727 62.3196 12.882C63.0383 13.5913 63.3976 14.464 63.3976 15.5C63.3976 16.536 63.0383 17.4087 62.3196 18.118C61.6103 18.8273 60.7376 19.182 59.7016 19.182ZM58.1476 17.082C58.5676 17.502 59.0856 17.712 59.7016 17.712C60.3176 17.712 60.8356 17.502 61.2556 17.082C61.6756 16.662 61.8856 16.1347 61.8856 15.5C61.8856 14.8653 61.6756 14.338 61.2556 13.918C60.8356 13.498 60.3176 13.288 59.7016 13.288C59.0856 13.288 58.5676 13.498 58.1476 13.918C57.7276 14.338 57.5176 14.8653 57.5176 15.5C57.5176 16.1347 57.7276 16.662 58.1476 17.082ZM66.2768 13.176C66.6595 12.308 67.3781 11.874 68.4328 11.874V13.512C67.8541 13.4747 67.3501 13.6147 66.9208 13.932C66.4915 14.24 66.2768 14.7533 66.2768 15.472V19H64.7648V12H66.2768V13.176ZM73.6337 13.456H71.8977V16.816C71.8977 17.1053 71.963 17.3153 72.0937 17.446C72.2244 17.5673 72.4157 17.6373 72.6677 17.656C72.929 17.6653 73.251 17.6607 73.6337 17.642V19C72.4764 19.14 71.6457 19.042 71.1417 18.706C70.6377 18.3607 70.3857 17.7307 70.3857 16.816V13.456H69.0977V12H70.3857V10.488L71.8977 10.04V12H73.6337V13.456Z" fill="#A9A9A9"/>
</svg>
