<svg width="49" height="30" viewBox="0 0 49 30" fill="none" xmlns="http://www.w3.org/2000/svg">
<rect width="49" height="30" rx="6" fill="#E1FF00"/>
<path d="M14.242 19.182C13.2993 19.182 12.4967 18.9673 11.834 18.538C11.1807 18.1087 10.7233 17.5207 10.462 16.774L11.848 15.962C12.24 17.0633 13.052 17.614 14.284 17.614C14.8907 17.614 15.3433 17.4973 15.642 17.264C15.95 17.0213 16.104 16.7087 16.104 16.326C16.104 15.9247 15.9407 15.6213 15.614 15.416C15.2873 15.2013 14.7087 14.968 13.878 14.716C13.4113 14.576 13.0333 14.4453 12.744 14.324C12.4547 14.2027 12.1467 14.0347 11.82 13.82C11.5027 13.596 11.2647 13.3207 11.106 12.994C10.9473 12.6673 10.868 12.2847 10.868 11.846C10.868 10.978 11.176 10.292 11.792 9.788C12.408 9.27467 13.15 9.018 14.018 9.018C14.802 9.018 15.488 9.20933 16.076 9.592C16.664 9.97467 17.1167 10.502 17.434 11.174L16.076 11.958C15.6653 11.0433 14.9793 10.586 14.018 10.586C13.5513 10.586 13.178 10.698 12.898 10.922C12.618 11.1367 12.478 11.4307 12.478 11.804C12.478 12.168 12.618 12.4573 12.898 12.672C13.1873 12.8773 13.7053 13.0967 14.452 13.33C14.8253 13.4513 15.096 13.5447 15.264 13.61C15.4413 13.666 15.684 13.7593 15.992 13.89C16.3093 14.0207 16.5473 14.1513 16.706 14.282C16.8647 14.4127 17.0327 14.576 17.21 14.772C17.3967 14.968 17.5273 15.192 17.602 15.444C17.6767 15.696 17.714 15.9807 17.714 16.298C17.714 17.1847 17.392 17.8893 16.748 18.412C16.1133 18.9253 15.278 19.182 14.242 19.182ZM20.4448 10.67C20.2581 10.8567 20.0341 10.95 19.7728 10.95C19.5114 10.95 19.2828 10.8567 19.0868 10.67C18.9001 10.474 18.8068 10.2453 18.8068 9.984C18.8068 9.72267 18.9001 9.49867 19.0868 9.312C19.2734 9.116 19.5021 9.018 19.7728 9.018C20.0434 9.018 20.2721 9.116 20.4588 9.312C20.6454 9.49867 20.7388 9.72267 20.7388 9.984C20.7388 10.2453 20.6408 10.474 20.4448 10.67ZM19.0168 19V12H20.5288V19H19.0168ZM27.8283 9.2H29.3403V19H27.8283V17.992C27.259 18.7853 26.4423 19.182 25.3783 19.182C24.417 19.182 23.5957 18.8273 22.9143 18.118C22.233 17.3993 21.8923 16.5267 21.8923 15.5C21.8923 14.464 22.233 13.5913 22.9143 12.882C23.5957 12.1727 24.417 11.818 25.3783 11.818C26.4423 11.818 27.259 12.21 27.8283 12.994V9.2ZM24.0343 17.11C24.4543 17.53 24.9817 17.74 25.6163 17.74C26.251 17.74 26.7783 17.53 27.1983 17.11C27.6183 16.6807 27.8283 16.144 27.8283 15.5C27.8283 14.856 27.6183 14.324 27.1983 13.904C26.7783 13.4747 26.251 13.26 25.6163 13.26C24.9817 13.26 24.4543 13.4747 24.0343 13.904C23.6143 14.324 23.4043 14.856 23.4043 15.5C23.4043 16.144 23.6143 16.6807 24.0343 17.11ZM32.2927 16.144C32.4047 16.676 32.6614 17.0867 33.0627 17.376C33.464 17.656 33.954 17.796 34.5327 17.796C35.3354 17.796 35.9374 17.5067 36.3387 16.928L37.5847 17.656C36.894 18.6733 35.872 19.182 34.5187 19.182C33.38 19.182 32.4607 18.8367 31.7607 18.146C31.0607 17.446 30.7107 16.564 30.7107 15.5C30.7107 14.4547 31.056 13.582 31.7467 12.882C32.4374 12.1727 33.324 11.818 34.4067 11.818C35.4334 11.818 36.2734 12.1773 36.9267 12.896C37.5894 13.6147 37.9207 14.4873 37.9207 15.514C37.9207 15.6727 37.902 15.8827 37.8647 16.144H32.2927ZM32.2787 14.912H36.3947C36.292 14.3427 36.054 13.9133 35.6807 13.624C35.3167 13.3347 34.8874 13.19 34.3927 13.19C33.8327 13.19 33.366 13.344 32.9927 13.652C32.6194 13.96 32.3814 14.38 32.2787 14.912Z" fill="#1A1A1A"/>
</svg>
