<svg width="104" height="30" viewBox="0 0 104 30" fill="none" xmlns="http://www.w3.org/2000/svg">
<path d="M18.2407 9.5V11.9445M20.6851 12.3519V13.9816M17.0185 10.7223H19.463M19.8703 13.1667H21.4999M13.5693 17.4308L10.7637 16.397C10.6864 16.3685 10.6196 16.3169 10.5725 16.2492C10.5253 16.1816 10.5001 16.1011 10.5001 16.0186C10.5001 15.9362 10.5253 15.8557 10.5725 15.788C10.6196 15.7204 10.6864 15.6688 10.7637 15.6402L13.5693 14.6064L14.6031 11.8009C14.6316 11.7235 14.6832 11.6568 14.7509 11.6097C14.8185 11.5625 14.899 11.5372 14.9815 11.5372C15.0639 11.5372 15.1444 11.5625 15.2121 11.6097C15.2797 11.6568 15.3313 11.7235 15.3598 11.8009L16.3936 14.6064L19.1992 15.6402C19.2765 15.6688 19.3433 15.7204 19.3904 15.788C19.4376 15.8557 19.4629 15.9362 19.4629 16.0186C19.4629 16.1011 19.4376 16.1816 19.3904 16.2492C19.3433 16.3169 19.2765 16.3685 19.1992 16.397L16.3936 17.4308L15.3598 20.2364C15.3313 20.3137 15.2797 20.3805 15.2121 20.4276C15.1444 20.4747 15.0639 20.5 14.9815 20.5C14.899 20.5 14.8185 20.4747 14.7509 20.4276C14.6832 20.3805 14.6316 20.3137 14.6031 20.2364L13.5693 17.4308Z" stroke="#E1FF00" stroke-width="1.2" stroke-linecap="round" stroke-linejoin="round"/>
<path d="M42.514 13.932V14.604C42.514 15.948 42.0707 17.0493 41.184 17.908C40.2973 18.7573 39.14 19.182 37.712 19.182C36.2 19.182 34.9493 18.692 33.96 17.712C32.98 16.732 32.49 15.528 32.49 14.1C32.49 12.6813 32.98 11.482 33.96 10.502C34.9493 9.51267 36.172 9.018 37.628 9.018C38.5427 9.018 39.378 9.228 40.134 9.648C40.89 10.068 41.478 10.6327 41.898 11.342L40.512 12.14C40.2507 11.6733 39.8633 11.3 39.35 11.02C38.8367 10.7307 38.2627 10.586 37.628 10.586C36.6013 10.586 35.7567 10.922 35.094 11.594C34.4313 12.266 34.1 13.106 34.1 14.114C34.1 15.122 34.4313 15.9573 35.094 16.62C35.766 17.2827 36.6433 17.614 37.726 17.614C38.594 17.614 39.2987 17.4133 39.84 17.012C40.3907 16.6013 40.7407 16.0553 40.89 15.374H37.614V13.932H42.514ZM45.0779 16.144C45.1899 16.676 45.4465 17.0867 45.8479 17.376C46.2492 17.656 46.7392 17.796 47.3179 17.796C48.1205 17.796 48.7225 17.5067 49.1239 16.928L50.3699 17.656C49.6792 18.6733 48.6572 19.182 47.3039 19.182C46.1652 19.182 45.2459 18.8367 44.5459 18.146C43.8459 17.446 43.4959 16.564 43.4959 15.5C43.4959 14.4547 43.8412 13.582 44.5319 12.882C45.2225 12.1727 46.1092 11.818 47.1919 11.818C48.2185 11.818 49.0585 12.1773 49.7119 12.896C50.3745 13.6147 50.7059 14.4873 50.7059 15.514C50.7059 15.6727 50.6872 15.8827 50.6499 16.144H45.0779ZM45.0639 14.912H49.1799C49.0772 14.3427 48.8392 13.9133 48.4659 13.624C48.1019 13.3347 47.6725 13.19 47.1779 13.19C46.6179 13.19 46.1512 13.344 45.7779 13.652C45.4045 13.96 45.1665 14.38 45.0639 14.912ZM55.7183 11.818C56.521 11.818 57.1696 12.0747 57.6643 12.588C58.159 13.1013 58.4063 13.806 58.4063 14.702V19H56.8943V14.856C56.8943 14.3333 56.7543 13.932 56.4743 13.652C56.1943 13.372 55.8116 13.232 55.3263 13.232C54.7943 13.232 54.365 13.4 54.0383 13.736C53.7116 14.0627 53.5483 14.5667 53.5483 15.248V19H52.0363V12H53.5483V12.896C54.0056 12.1773 54.729 11.818 55.7183 11.818ZM61.2243 16.144C61.3363 16.676 61.593 17.0867 61.9943 17.376C62.3957 17.656 62.8857 17.796 63.4643 17.796C64.267 17.796 64.869 17.5067 65.2703 16.928L66.5163 17.656C65.8257 18.6733 64.8037 19.182 63.4503 19.182C62.3117 19.182 61.3923 18.8367 60.6923 18.146C59.9923 17.446 59.6423 16.564 59.6423 15.5C59.6423 14.4547 59.9877 13.582 60.6783 12.882C61.369 12.1727 62.2557 11.818 63.3383 11.818C64.365 11.818 65.205 12.1773 65.8583 12.896C66.521 13.6147 66.8523 14.4873 66.8523 15.514C66.8523 15.6727 66.8337 15.8827 66.7963 16.144H61.2243ZM61.2103 14.912H65.3263C65.2237 14.3427 64.9857 13.9133 64.6123 13.624C64.2483 13.3347 63.819 13.19 63.3243 13.19C62.7643 13.19 62.2977 13.344 61.9243 13.652C61.551 13.96 61.313 14.38 61.2103 14.912ZM69.6948 13.176C70.0774 12.308 70.7961 11.874 71.8508 11.874V13.512C71.2721 13.4747 70.7681 13.6147 70.3388 13.932C69.9094 14.24 69.6948 14.7533 69.6948 15.472V19H68.1828V12H69.6948V13.176ZM78.1838 12H79.6958V19H78.1838V17.992C77.6145 18.7853 76.7978 19.182 75.7338 19.182C74.7725 19.182 73.9511 18.8273 73.2698 18.118C72.5885 17.3993 72.2478 16.5267 72.2478 15.5C72.2478 14.464 72.5885 13.5913 73.2698 12.882C73.9511 12.1727 74.7725 11.818 75.7338 11.818C76.7978 11.818 77.6145 12.21 78.1838 12.994V12ZM74.3898 17.11C74.8098 17.53 75.3371 17.74 75.9718 17.74C76.6065 17.74 77.1338 17.53 77.5538 17.11C77.9738 16.6807 78.1838 16.144 78.1838 15.5C78.1838 14.856 77.9738 14.324 77.5538 13.904C77.1338 13.4747 76.6065 13.26 75.9718 13.26C75.3371 13.26 74.8098 13.4747 74.3898 13.904C73.9698 14.324 73.7598 14.856 73.7598 15.5C73.7598 16.144 73.9698 16.6807 74.3898 17.11ZM85.3642 13.456H83.6282V16.816C83.6282 17.1053 83.6935 17.3153 83.8242 17.446C83.9548 17.5673 84.1462 17.6373 84.3982 17.656C84.6595 17.6653 84.9815 17.6607 85.3642 17.642V19C84.2068 19.14 83.3762 19.042 82.8722 18.706C82.3682 18.3607 82.1162 17.7307 82.1162 16.816V13.456H80.8282V12H82.1162V10.488L83.6282 10.04V12H85.3642V13.456ZM87.6384 16.144C87.7504 16.676 88.0071 17.0867 88.4084 17.376C88.8097 17.656 89.2997 17.796 89.8784 17.796C90.6811 17.796 91.2831 17.5067 91.6844 16.928L92.9304 17.656C92.2397 18.6733 91.2177 19.182 89.8644 19.182C88.7257 19.182 87.8064 18.8367 87.1064 18.146C86.4064 17.446 86.0564 16.564 86.0564 15.5C86.0564 14.4547 86.4017 13.582 87.0924 12.882C87.7831 12.1727 88.6697 11.818 89.7524 11.818C90.7791 11.818 91.6191 12.1773 92.2724 12.896C92.9351 13.6147 93.2664 14.4873 93.2664 15.514C93.2664 15.6727 93.2477 15.8827 93.2104 16.144H87.6384ZM87.6244 14.912H91.7404C91.6377 14.3427 91.3997 13.9133 91.0264 13.624C90.6624 13.3347 90.2331 13.19 89.7384 13.19C89.1784 13.19 88.7117 13.344 88.3384 13.652C87.9651 13.96 87.7271 14.38 87.6244 14.912Z" fill="#E1FF00"/>
</svg>
