<svg width="77" height="30" viewBox="0 0 77 30" fill="none" xmlns="http://www.w3.org/2000/svg">
<path d="M18.5 16L21 13M21 13L18.5 10M21 13H13.9167C13.1431 13 12.4013 13.3687 11.8543 14.0251C11.3073 14.6815 11 15.5717 11 16.5C11 17.4283 11.3073 18.3185 11.8543 18.9749C12.4013 19.6313 13.1431 20 13.9167 20H18.5" stroke="#E1FF00" stroke-width="1.5" stroke-linejoin="round"/>
<path d="M38.566 19L36.494 15.43H34.59V19H32.98V9.2H36.9C37.7773 9.2 38.5193 9.508 39.126 10.124C39.742 10.7307 40.05 11.4727 40.05 12.35C40.05 12.9753 39.868 13.5493 39.504 14.072C39.1493 14.5853 38.6827 14.9587 38.104 15.192L40.33 19H38.566ZM34.59 10.712V13.988H36.9C37.3293 13.988 37.6933 13.8293 37.992 13.512C38.2907 13.1947 38.44 12.8073 38.44 12.35C38.44 11.8927 38.2907 11.5053 37.992 11.188C37.6933 10.8707 37.3293 10.712 36.9 10.712H34.59ZM42.2888 16.144C42.4008 16.676 42.6575 17.0867 43.0588 17.376C43.4601 17.656 43.9501 17.796 44.5288 17.796C45.3315 17.796 45.9335 17.5067 46.3348 16.928L47.5808 17.656C46.8901 18.6733 45.8681 19.182 44.5148 19.182C43.3761 19.182 42.4568 18.8367 41.7568 18.146C41.0568 17.446 40.7068 16.564 40.7068 15.5C40.7068 14.4547 41.0521 13.582 41.7428 12.882C42.4335 12.1727 43.3201 11.818 44.4028 11.818C45.4295 11.818 46.2695 12.1773 46.9228 12.896C47.5855 13.6147 47.9168 14.4873 47.9168 15.514C47.9168 15.6727 47.8981 15.8827 47.8608 16.144H42.2888ZM42.2748 14.912H46.3908C46.2881 14.3427 46.0501 13.9133 45.6768 13.624C45.3128 13.3347 44.8835 13.19 44.3888 13.19C43.8288 13.19 43.3621 13.344 42.9888 13.652C42.6155 13.96 42.3775 14.38 42.2748 14.912ZM54.7502 9.2H56.2622V19H54.7502V17.992C54.1809 18.7853 53.3642 19.182 52.3002 19.182C51.3389 19.182 50.5176 18.8273 49.8362 18.118C49.1549 17.3993 48.8142 16.5267 48.8142 15.5C48.8142 14.464 49.1549 13.5913 49.8362 12.882C50.5176 12.1727 51.3389 11.818 52.3002 11.818C53.3642 11.818 54.1809 12.21 54.7502 12.994V9.2ZM50.9562 17.11C51.3762 17.53 51.9036 17.74 52.5382 17.74C53.1729 17.74 53.7002 17.53 54.1202 17.11C54.5402 16.6807 54.7502 16.144 54.7502 15.5C54.7502 14.856 54.5402 14.324 54.1202 13.904C53.7002 13.4747 53.1729 13.26 52.5382 13.26C51.9036 13.26 51.3762 13.4747 50.9562 13.904C50.5362 14.324 50.3262 14.856 50.3262 15.5C50.3262 16.144 50.5362 16.6807 50.9562 17.11ZM61.3286 19.182C60.3019 19.182 59.4292 18.8273 58.7106 18.118C57.9919 17.4087 57.6326 16.536 57.6326 15.5C57.6326 14.464 57.9919 13.5913 58.7106 12.882C59.4292 12.1727 60.3019 11.818 61.3286 11.818C62.3646 11.818 63.2372 12.1727 63.9466 12.882C64.6652 13.5913 65.0246 14.464 65.0246 15.5C65.0246 16.536 64.6652 17.4087 63.9466 18.118C63.2372 18.8273 62.3646 19.182 61.3286 19.182ZM59.7746 17.082C60.1946 17.502 60.7126 17.712 61.3286 17.712C61.9446 17.712 62.4626 17.502 62.8826 17.082C63.3026 16.662 63.5126 16.1347 63.5126 15.5C63.5126 14.8653 63.3026 14.338 62.8826 13.918C62.4626 13.498 61.9446 13.288 61.3286 13.288C60.7126 13.288 60.1946 13.498 59.7746 13.918C59.3546 14.338 59.1446 14.8653 59.1446 15.5C59.1446 16.1347 59.3546 16.662 59.7746 17.082Z" fill="#E1FF00"/>
</svg>
