<svg width="85" height="30" viewBox="0 0 85 30" fill="none" xmlns="http://www.w3.org/2000/svg">
<path d="M10 15H22M16 9V21" stroke="#A9A9A9" stroke-width="2" stroke-linejoin="round"/>
<path d="M32.98 9.2H34.59V19H32.98V9.2ZM44.0944 11.818C44.8877 11.818 45.527 12.0747 46.0124 12.588C46.4977 13.1013 46.7404 13.792 46.7404 14.66V19H45.2284V14.758C45.2284 14.2727 45.107 13.8993 44.8644 13.638C44.6217 13.3673 44.2904 13.232 43.8704 13.232C43.4037 13.232 43.0304 13.386 42.7504 13.694C42.4797 14.002 42.3444 14.464 42.3444 15.08V19H40.8324V14.758C40.8324 14.2727 40.7157 13.8993 40.4824 13.638C40.2584 13.3673 39.9364 13.232 39.5164 13.232C39.059 13.232 38.6857 13.3907 38.3964 13.708C38.107 14.016 37.9624 14.4733 37.9624 15.08V19H36.4504V12H37.9624V12.84C38.4104 12.1587 39.0777 11.818 39.9644 11.818C40.8604 11.818 41.523 12.1867 41.9524 12.924C42.419 12.1867 43.133 11.818 44.0944 11.818ZM52.3206 11.818C53.2819 11.818 54.1032 12.1773 54.7846 12.896C55.4659 13.6053 55.8066 14.4733 55.8066 15.5C55.8066 16.536 55.4659 17.4087 54.7846 18.118C54.1032 18.8273 53.2819 19.182 52.3206 19.182C51.2566 19.182 50.4399 18.79 49.8706 18.006V21.8H48.3586V12H49.8706V13.008C50.4399 12.2147 51.2566 11.818 52.3206 11.818ZM50.5006 17.11C50.9206 17.53 51.4479 17.74 52.0826 17.74C52.7172 17.74 53.2446 17.53 53.6646 17.11C54.0846 16.6807 54.2946 16.144 54.2946 15.5C54.2946 14.856 54.0846 14.324 53.6646 13.904C53.2446 13.4747 52.7172 13.26 52.0826 13.26C51.4479 13.26 50.9206 13.4747 50.5006 13.904C50.0806 14.324 49.8706 14.856 49.8706 15.5C49.8706 16.144 50.0806 16.6807 50.5006 17.11ZM60.4809 19.182C59.4543 19.182 58.5816 18.8273 57.8629 18.118C57.1443 17.4087 56.7849 16.536 56.7849 15.5C56.7849 14.464 57.1443 13.5913 57.8629 12.882C58.5816 12.1727 59.4543 11.818 60.4809 11.818C61.5169 11.818 62.3896 12.1727 63.0989 12.882C63.8176 13.5913 64.1769 14.464 64.1769 15.5C64.1769 16.536 63.8176 17.4087 63.0989 18.118C62.3896 18.8273 61.5169 19.182 60.4809 19.182ZM58.9269 17.082C59.3469 17.502 59.8649 17.712 60.4809 17.712C61.0969 17.712 61.6149 17.502 62.0349 17.082C62.4549 16.662 62.6649 16.1347 62.6649 15.5C62.6649 14.8653 62.4549 14.338 62.0349 13.918C61.6149 13.498 61.0969 13.288 60.4809 13.288C59.8649 13.288 59.3469 13.498 58.9269 13.918C58.5069 14.338 58.2969 14.8653 58.2969 15.5C58.2969 16.1347 58.5069 16.662 58.9269 17.082ZM67.0561 13.176C67.4388 12.308 68.1574 11.874 69.2121 11.874V13.512C68.6334 13.4747 68.1294 13.6147 67.7001 13.932C67.2708 14.24 67.0561 14.7533 67.0561 15.472V19H65.5441V12H67.0561V13.176ZM74.413 13.456H72.677V16.816C72.677 17.1053 72.7423 17.3153 72.873 17.446C73.0037 17.5673 73.195 17.6373 73.447 17.656C73.7083 17.6653 74.0303 17.6607 74.413 17.642V19C73.2557 19.14 72.425 19.042 71.921 18.706C71.417 18.3607 71.165 17.7307 71.165 16.816V13.456H69.877V12H71.165V10.488L72.677 10.04V12H74.413V13.456Z" fill="#A9A9A9"/>
</svg>
