<svg width="32" height="30" viewBox="0 0 32 30" fill="none" xmlns="http://www.w3.org/2000/svg">
<path d="M18.75 19.7644V17.75C18.75 17.6284 18.7017 17.5119 18.6158 17.4259C18.5298 17.34 18.4132 17.2917 18.2917 17.2917H13.7083C13.5868 17.2917 13.4702 17.34 13.3842 17.4259C13.2983 17.5119 13.25 17.6284 13.25 17.75V19.7644M14.1667 17.2917V15.9167C14.1667 15.7951 14.215 15.6785 14.3009 15.5926C14.3869 15.5066 14.5034 15.4583 14.625 15.4583H17.375C17.4966 15.4583 17.6131 15.5066 17.6991 15.5926C17.785 15.6785 17.8333 15.7951 17.8333 15.9167V17.2917M17.1366 15.4584L16.4491 12.1566C16.3477 11.6702 15.6534 11.6702 15.552 12.1566L14.8645 15.4584M21.5 15C21.5 18.0376 19.0376 20.5 16 20.5C12.9624 20.5 10.5 18.0376 10.5 15C10.5 11.9624 12.9624 9.5 16 9.5C19.0376 9.5 21.5 11.9624 21.5 15Z" stroke="white" stroke-linecap="round" stroke-linejoin="round"/>
</svg>
