<svg width="68" height="30" viewBox="0 0 68 30" fill="none" xmlns="http://www.w3.org/2000/svg">
<path d="M16.748 13.418C17.1773 13.642 17.5133 13.95 17.756 14.342C17.9987 14.734 18.12 15.1867 18.12 15.7C18.12 16.5027 17.8353 17.17 17.266 17.702C16.6967 18.234 16.0013 18.5 15.18 18.5H10.98V8.7H14.872C15.6747 8.7 16.3513 8.96133 16.902 9.484C17.462 9.99733 17.742 10.6413 17.742 11.416C17.742 12.2653 17.4107 12.9327 16.748 13.418ZM14.872 10.212H12.59V12.788H14.872C15.2267 12.788 15.5253 12.6667 15.768 12.424C16.0107 12.172 16.132 11.864 16.132 11.5C16.132 11.136 16.0107 10.8327 15.768 10.59C15.5253 10.338 15.2267 10.212 14.872 10.212ZM15.18 16.988C15.5533 16.988 15.866 16.8573 16.118 16.596C16.3793 16.3253 16.51 15.9987 16.51 15.616C16.51 15.2333 16.3793 14.9113 16.118 14.65C15.866 14.3793 15.5533 14.244 15.18 14.244H12.59V16.988H15.18ZM22.7993 18.682C21.7726 18.682 20.8999 18.3273 20.1813 17.618C19.4626 16.9087 19.1033 16.036 19.1033 15C19.1033 13.964 19.4626 13.0913 20.1813 12.382C20.8999 11.6727 21.7726 11.318 22.7993 11.318C23.8353 11.318 24.7079 11.6727 25.4173 12.382C26.1359 13.0913 26.4953 13.964 26.4953 15C26.4953 16.036 26.1359 16.9087 25.4173 17.618C24.7079 18.3273 23.8353 18.682 22.7993 18.682ZM21.2453 16.582C21.6653 17.002 22.1833 17.212 22.7993 17.212C23.4153 17.212 23.9333 17.002 24.3533 16.582C24.7733 16.162 24.9833 15.6347 24.9833 15C24.9833 14.3653 24.7733 13.838 24.3533 13.418C23.9333 12.998 23.4153 12.788 22.7993 12.788C22.1833 12.788 21.6653 12.998 21.2453 13.418C20.8253 13.838 20.6153 14.3653 20.6153 15C20.6153 15.6347 20.8253 16.162 21.2453 16.582ZM33.4065 11.5H34.9185V18.5H33.4065V17.492C32.8371 18.2853 32.0205 18.682 30.9565 18.682C29.9951 18.682 29.1738 18.3273 28.4925 17.618C27.8111 16.8993 27.4705 16.0267 27.4705 15C27.4705 13.964 27.8111 13.0913 28.4925 12.382C29.1738 11.6727 29.9951 11.318 30.9565 11.318C32.0205 11.318 32.8371 11.71 33.4065 12.494V11.5ZM29.6125 16.61C30.0325 17.03 30.5598 17.24 31.1945 17.24C31.8291 17.24 32.3565 17.03 32.7765 16.61C33.1965 16.1807 33.4065 15.644 33.4065 15C33.4065 14.356 33.1965 13.824 32.7765 13.404C32.3565 12.9747 31.8291 12.76 31.1945 12.76C30.5598 12.76 30.0325 12.9747 29.6125 13.404C29.1925 13.824 28.9825 14.356 28.9825 15C28.9825 15.644 29.1925 16.1807 29.6125 16.61ZM38.1928 12.676C38.5755 11.808 39.2942 11.374 40.3488 11.374V13.012C39.7702 12.9747 39.2662 13.1147 38.8368 13.432C38.4075 13.74 38.1928 14.2533 38.1928 14.972V18.5H36.6808V11.5H38.1928V12.676ZM46.6819 8.7H48.1939V18.5H46.6819V17.492C46.1125 18.2853 45.2959 18.682 44.2319 18.682C43.2705 18.682 42.4492 18.3273 41.7679 17.618C41.0865 16.8993 40.7459 16.0267 40.7459 15C40.7459 13.964 41.0865 13.0913 41.7679 12.382C42.4492 11.6727 43.2705 11.318 44.2319 11.318C45.2959 11.318 46.1125 11.71 46.6819 12.494V8.7ZM42.8879 16.61C43.3079 17.03 43.8352 17.24 44.4699 17.24C45.1045 17.24 45.6319 17.03 46.0519 16.61C46.4719 16.1807 46.6819 15.644 46.6819 15C46.6819 14.356 46.4719 13.824 46.0519 13.404C45.6319 12.9747 45.1045 12.76 44.4699 12.76C43.8352 12.76 43.3079 12.9747 42.8879 13.404C42.4679 13.824 42.2579 14.356 42.2579 15C42.2579 15.644 42.4679 16.1807 42.8879 16.61ZM55.3322 8.7H56.7322V18.5H55.1222V10.422L53.1482 10.982L52.7562 9.61L55.3322 8.7Z" fill="white"/>
</svg>
