<svg width="77" height="30" viewBox="0 0 77 30" fill="none" xmlns="http://www.w3.org/2000/svg">
<path d="M18.5565 12.9548H21.6244M21.6244 12.9548V9.88696M21.6244 12.9548L19.8169 11.1473C18.7702 10.1006 17.353 9.50871 15.8727 9.5001C14.3924 9.49148 12.9684 10.0668 11.9095 11.1013M13.4435 17.0453H10.3756M10.3756 17.0453V20.1131M10.3756 17.0453L12.1831 18.8528C13.2298 19.8995 14.6471 20.4913 16.1273 20.4999C17.6076 20.5086 19.0316 19.9332 20.0905 18.8988" stroke="white" stroke-width="1.5" stroke-linecap="round" stroke-linejoin="round"/>
<path d="M36.242 19.182C35.2993 19.182 34.4967 18.9673 33.834 18.538C33.1807 18.1087 32.7233 17.5207 32.462 16.774L33.848 15.962C34.24 17.0633 35.052 17.614 36.284 17.614C36.8907 17.614 37.3433 17.4973 37.642 17.264C37.95 17.0213 38.104 16.7087 38.104 16.326C38.104 15.9247 37.9407 15.6213 37.614 15.416C37.2873 15.2013 36.7087 14.968 35.878 14.716C35.4113 14.576 35.0333 14.4453 34.744 14.324C34.4547 14.2027 34.1467 14.0347 33.82 13.82C33.5027 13.596 33.2647 13.3207 33.106 12.994C32.9473 12.6673 32.868 12.2847 32.868 11.846C32.868 10.978 33.176 10.292 33.792 9.788C34.408 9.27467 35.15 9.018 36.018 9.018C36.802 9.018 37.488 9.20933 38.076 9.592C38.664 9.97467 39.1167 10.502 39.434 11.174L38.076 11.958C37.6653 11.0433 36.9793 10.586 36.018 10.586C35.5513 10.586 35.178 10.698 34.898 10.922C34.618 11.1367 34.478 11.4307 34.478 11.804C34.478 12.168 34.618 12.4573 34.898 12.672C35.1873 12.8773 35.7053 13.0967 36.452 13.33C36.8253 13.4513 37.096 13.5447 37.264 13.61C37.4413 13.666 37.684 13.7593 37.992 13.89C38.3093 14.0207 38.5473 14.1513 38.706 14.282C38.8647 14.4127 39.0327 14.576 39.21 14.772C39.3967 14.968 39.5273 15.192 39.602 15.444C39.6767 15.696 39.714 15.9807 39.714 16.298C39.714 17.1847 39.392 17.8893 38.748 18.412C38.1133 18.9253 37.278 19.182 36.242 19.182ZM42.4448 10.67C42.2581 10.8567 42.0341 10.95 41.7728 10.95C41.5114 10.95 41.2828 10.8567 41.0868 10.67C40.9001 10.474 40.8068 10.2453 40.8068 9.984C40.8068 9.72267 40.9001 9.49867 41.0868 9.312C41.2734 9.116 41.5021 9.018 41.7728 9.018C42.0434 9.018 42.2721 9.116 42.4588 9.312C42.6454 9.49867 42.7388 9.72267 42.7388 9.984C42.7388 10.2453 42.6408 10.474 42.4448 10.67ZM41.0168 19V12H42.5288V19H41.0168ZM49.8283 9.2H51.3403V19H49.8283V17.992C49.259 18.7853 48.4423 19.182 47.3783 19.182C46.417 19.182 45.5957 18.8273 44.9143 18.118C44.233 17.3993 43.8923 16.5267 43.8923 15.5C43.8923 14.464 44.233 13.5913 44.9143 12.882C45.5957 12.1727 46.417 11.818 47.3783 11.818C48.4423 11.818 49.259 12.21 49.8283 12.994V9.2ZM46.0343 17.11C46.4543 17.53 46.9817 17.74 47.6163 17.74C48.251 17.74 48.7783 17.53 49.1983 17.11C49.6183 16.6807 49.8283 16.144 49.8283 15.5C49.8283 14.856 49.6183 14.324 49.1983 13.904C48.7783 13.4747 48.251 13.26 47.6163 13.26C46.9817 13.26 46.4543 13.4747 46.0343 13.904C45.6143 14.324 45.4043 14.856 45.4043 15.5C45.4043 16.144 45.6143 16.6807 46.0343 17.11ZM54.2927 16.144C54.4047 16.676 54.6614 17.0867 55.0627 17.376C55.464 17.656 55.954 17.796 56.5327 17.796C57.3354 17.796 57.9374 17.5067 58.3387 16.928L59.5847 17.656C58.894 18.6733 57.872 19.182 56.5187 19.182C55.38 19.182 54.4607 18.8367 53.7607 18.146C53.0607 17.446 52.7107 16.564 52.7107 15.5C52.7107 14.4547 53.056 13.582 53.7467 12.882C54.4374 12.1727 55.324 11.818 56.4067 11.818C57.4334 11.818 58.2734 12.1773 58.9267 12.896C59.5894 13.6147 59.9207 14.4873 59.9207 15.514C59.9207 15.6727 59.902 15.8827 59.8647 16.144H54.2927ZM54.2787 14.912H58.3947C58.292 14.3427 58.054 13.9133 57.6807 13.624C57.3167 13.3347 56.8874 13.19 56.3927 13.19C55.8327 13.19 55.366 13.344 54.9927 13.652C54.6194 13.96 54.3814 14.38 54.2787 14.912ZM62.3357 13.932C62.3357 14.1653 62.4617 14.352 62.7137 14.492C62.975 14.6227 63.2877 14.7393 63.6517 14.842C64.025 14.9353 64.3984 15.0473 64.7717 15.178C65.145 15.3087 65.4577 15.5327 65.7097 15.85C65.971 16.158 66.1017 16.55 66.1017 17.026C66.1017 17.698 65.8404 18.2253 65.3177 18.608C64.8044 18.9907 64.1557 19.182 63.3717 19.182C62.681 19.182 62.0884 19.0373 61.5937 18.748C61.099 18.4587 60.7397 18.0573 60.5157 17.544L61.8177 16.788C62.0604 17.46 62.5784 17.796 63.3717 17.796C64.165 17.796 64.5617 17.5347 64.5617 17.012C64.5617 16.788 64.431 16.606 64.1697 16.466C63.9177 16.326 63.605 16.2093 63.2317 16.116C62.8677 16.0133 62.499 15.8967 62.1257 15.766C61.7524 15.6353 61.435 15.4207 61.1737 15.122C60.9217 14.814 60.7957 14.4267 60.7957 13.96C60.7957 13.316 61.0384 12.798 61.5237 12.406C62.0184 12.014 62.6297 11.818 63.3577 11.818C63.9364 11.818 64.4497 11.9487 64.8977 12.21C65.355 12.462 65.705 12.8167 65.9477 13.274L64.6737 13.988C64.431 13.456 63.9924 13.19 63.3577 13.19C63.0684 13.19 62.8257 13.2553 62.6297 13.386C62.4337 13.5073 62.3357 13.6893 62.3357 13.932Z" fill="white"/>
</svg>
