<svg width="104" height="30" viewBox="0 0 104 30" fill="none" xmlns="http://www.w3.org/2000/svg">
<path d="M19.2999 16.1V20.5M21.5 18.2999H17.1M14.9 11.7C14.9 12.915 13.915 13.9 12.7 13.9C11.485 13.9 10.5 12.915 10.5 11.7C10.5 10.485 11.485 9.5 12.7 9.5C13.915 9.5 14.9 10.485 14.9 11.7ZM21.5 11.7C21.5 12.915 20.515 13.9 19.3 13.9C18.0849 13.9 17.1 12.915 17.1 11.7C17.1 10.485 18.0849 9.5 19.3 9.5C20.515 9.5 21.5 10.485 21.5 11.7ZM14.9 18.3C14.9 19.515 13.915 20.5 12.7 20.5C11.485 20.5 10.5 19.515 10.5 18.3C10.5 17.0849 11.485 16.1 12.7 16.1C13.915 16.1 14.9 17.0849 14.9 18.3Z" stroke="#A9A9A9" stroke-width="1.5" stroke-linecap="round" stroke-linejoin="round"/>
<path d="M37.614 19.182C36.1393 19.182 34.9167 18.6967 33.946 17.726C32.9753 16.746 32.49 15.5373 32.49 14.1C32.49 12.6627 32.9753 11.4587 33.946 10.488C34.9167 9.508 36.1393 9.018 37.614 9.018C38.5007 9.018 39.3173 9.228 40.064 9.648C40.82 10.068 41.408 10.6373 41.828 11.356L40.428 12.168C40.1667 11.6827 39.784 11.3 39.28 11.02C38.7853 10.7307 38.23 10.586 37.614 10.586C36.5687 10.586 35.7193 10.9173 35.066 11.58C34.422 12.2427 34.1 13.0827 34.1 14.1C34.1 15.1173 34.422 15.9573 35.066 16.62C35.7193 17.2827 36.5687 17.614 37.614 17.614C38.23 17.614 38.79 17.474 39.294 17.194C39.798 16.9047 40.176 16.5173 40.428 16.032L41.828 16.83C41.4173 17.5487 40.834 18.1227 40.078 18.552C39.3313 18.972 38.51 19.182 37.614 19.182ZM46.3579 19.182C45.3312 19.182 44.4585 18.8273 43.7399 18.118C43.0212 17.4087 42.6619 16.536 42.6619 15.5C42.6619 14.464 43.0212 13.5913 43.7399 12.882C44.4585 12.1727 45.3312 11.818 46.3579 11.818C47.3939 11.818 48.2665 12.1727 48.9759 12.882C49.6945 13.5913 50.0539 14.464 50.0539 15.5C50.0539 16.536 49.6945 17.4087 48.9759 18.118C48.2665 18.8273 47.3939 19.182 46.3579 19.182ZM44.8039 17.082C45.2239 17.502 45.7419 17.712 46.3579 17.712C46.9739 17.712 47.4919 17.502 47.9119 17.082C48.3319 16.662 48.5419 16.1347 48.5419 15.5C48.5419 14.8653 48.3319 14.338 47.9119 13.918C47.4919 13.498 46.9739 13.288 46.3579 13.288C45.7419 13.288 45.2239 13.498 44.8039 13.918C44.3839 14.338 44.1739 14.8653 44.1739 15.5C44.1739 16.1347 44.3839 16.662 44.8039 17.082ZM51.4211 19V8.78H52.9331V19H51.4211ZM57.9926 19.182C56.966 19.182 56.0933 18.8273 55.3746 18.118C54.656 17.4087 54.2966 16.536 54.2966 15.5C54.2966 14.464 54.656 13.5913 55.3746 12.882C56.0933 12.1727 56.966 11.818 57.9926 11.818C59.0286 11.818 59.9013 12.1727 60.6106 12.882C61.3293 13.5913 61.6886 14.464 61.6886 15.5C61.6886 16.536 61.3293 17.4087 60.6106 18.118C59.9013 18.8273 59.0286 19.182 57.9926 19.182ZM56.4386 17.082C56.8586 17.502 57.3766 17.712 57.9926 17.712C58.6086 17.712 59.1266 17.502 59.5466 17.082C59.9666 16.662 60.1766 16.1347 60.1766 15.5C60.1766 14.8653 59.9666 14.338 59.5466 13.918C59.1266 13.498 58.6086 13.288 57.9926 13.288C57.3766 13.288 56.8586 13.498 56.4386 13.918C56.0186 14.338 55.8086 14.8653 55.8086 15.5C55.8086 16.1347 56.0186 16.662 56.4386 17.082ZM64.5678 13.176C64.9505 12.308 65.6692 11.874 66.7238 11.874V13.512C66.1452 13.4747 65.6412 13.6147 65.2118 13.932C64.7825 14.24 64.5678 14.7533 64.5678 15.472V19H63.0558V12H64.5678V13.176ZM75.905 12H77.501L75.303 19H73.819L72.363 14.282L70.893 19H69.409L67.211 12H68.807L70.165 16.83L71.635 12H73.077L74.533 16.83L75.905 12ZM83.885 12H85.397V19H83.885V17.992C83.3157 18.7853 82.499 19.182 81.435 19.182C80.4737 19.182 79.6523 18.8273 78.971 18.118C78.2897 17.3993 77.949 16.5267 77.949 15.5C77.949 14.464 78.2897 13.5913 78.971 12.882C79.6523 12.1727 80.4737 11.818 81.435 11.818C82.499 11.818 83.3157 12.21 83.885 12.994V12ZM80.091 17.11C80.511 17.53 81.0383 17.74 81.673 17.74C82.3077 17.74 82.835 17.53 83.255 17.11C83.675 16.6807 83.885 16.144 83.885 15.5C83.885 14.856 83.675 14.324 83.255 13.904C82.835 13.4747 82.3077 13.26 81.673 13.26C81.0383 13.26 80.511 13.4747 80.091 13.904C79.671 14.324 79.461 14.856 79.461 15.5C79.461 16.144 79.671 16.6807 80.091 17.11ZM91.8773 12H93.4873L90.7993 19.224C90.1273 21.0347 88.9887 21.8933 87.3833 21.8V20.386C87.8593 20.414 88.242 20.3113 88.5313 20.078C88.8207 19.854 89.0587 19.4993 89.2453 19.014L89.3153 18.874L86.3473 12H87.9993L90.0853 17.082L91.8773 12Z" fill="#A9A9A9"/>
</svg>
