<svg width="77" height="30" viewBox="0 0 77 30" fill="none" xmlns="http://www.w3.org/2000/svg">
<path d="M13.5 16L11 13M11 13L13.5 10M11 13H18.0833C18.8569 13 19.5987 13.3687 20.1457 14.0251C20.6927 14.6815 21 15.5717 21 16.5C21 17.4283 20.6927 18.3185 20.1457 18.9749C19.5987 19.6313 18.8569 20 18.0833 20H13.5" stroke="#E1FF00" stroke-width="1.5" stroke-linejoin="round"/>
<path d="M39.266 18.258C38.5753 18.874 37.684 19.182 36.592 19.182C35.5 19.182 34.6087 18.874 33.918 18.258C33.2273 17.6327 32.882 16.7973 32.882 15.752V9.2H34.492V15.654C34.492 16.2513 34.6647 16.7273 35.01 17.082C35.3647 17.4367 35.892 17.614 36.592 17.614C37.292 17.614 37.8147 17.4367 38.16 17.082C38.5147 16.7273 38.692 16.2513 38.692 15.654V9.2H40.302V15.752C40.302 16.7973 39.9567 17.6327 39.266 18.258ZM45.7378 11.818C46.5405 11.818 47.1892 12.0747 47.6838 12.588C48.1785 13.1013 48.4258 13.806 48.4258 14.702V19H46.9138V14.856C46.9138 14.3333 46.7738 13.932 46.4938 13.652C46.2138 13.372 45.8312 13.232 45.3458 13.232C44.8138 13.232 44.3845 13.4 44.0578 13.736C43.7312 14.0627 43.5678 14.5667 43.5678 15.248V19H42.0558V12H43.5678V12.896C44.0252 12.1773 44.7485 11.818 45.7378 11.818ZM55.5979 9.2H57.1099V19H55.5979V17.992C55.0285 18.7853 54.2119 19.182 53.1479 19.182C52.1865 19.182 51.3652 18.8273 50.6839 18.118C50.0025 17.3993 49.6619 16.5267 49.6619 15.5C49.6619 14.464 50.0025 13.5913 50.6839 12.882C51.3652 12.1727 52.1865 11.818 53.1479 11.818C54.2119 11.818 55.0285 12.21 55.5979 12.994V9.2ZM51.8039 17.11C52.2239 17.53 52.7512 17.74 53.3859 17.74C54.0205 17.74 54.5479 17.53 54.9679 17.11C55.3879 16.6807 55.5979 16.144 55.5979 15.5C55.5979 14.856 55.3879 14.324 54.9679 13.904C54.5479 13.4747 54.0205 13.26 53.3859 13.26C52.7512 13.26 52.2239 13.4747 51.8039 13.904C51.3839 14.324 51.1739 14.856 51.1739 15.5C51.1739 16.144 51.3839 16.6807 51.8039 17.11ZM62.1762 19.182C61.1496 19.182 60.2769 18.8273 59.5582 18.118C58.8396 17.4087 58.4802 16.536 58.4802 15.5C58.4802 14.464 58.8396 13.5913 59.5582 12.882C60.2769 12.1727 61.1496 11.818 62.1762 11.818C63.2122 11.818 64.0849 12.1727 64.7942 12.882C65.5129 13.5913 65.8722 14.464 65.8722 15.5C65.8722 16.536 65.5129 17.4087 64.7942 18.118C64.0849 18.8273 63.2122 19.182 62.1762 19.182ZM60.6222 17.082C61.0422 17.502 61.5602 17.712 62.1762 17.712C62.7922 17.712 63.3102 17.502 63.7302 17.082C64.1502 16.662 64.3602 16.1347 64.3602 15.5C64.3602 14.8653 64.1502 14.338 63.7302 13.918C63.3102 13.498 62.7922 13.288 62.1762 13.288C61.5602 13.288 61.0422 13.498 60.6222 13.918C60.2022 14.338 59.9922 14.8653 59.9922 15.5C59.9922 16.1347 60.2022 16.662 60.6222 17.082Z" fill="#E1FF00"/>
</svg>
