<svg width="53" height="30" viewBox="0 0 53 30" fill="none" xmlns="http://www.w3.org/2000/svg">
<rect width="53" height="30" rx="6" fill="#E1FF00"/>
<path d="M16.748 13.918C17.1773 14.142 17.5133 14.45 17.756 14.842C17.9987 15.234 18.12 15.6867 18.12 16.2C18.12 17.0027 17.8353 17.67 17.266 18.202C16.6967 18.734 16.0013 19 15.18 19H10.98V9.2H14.872C15.6747 9.2 16.3513 9.46133 16.902 9.984C17.462 10.4973 17.742 11.1413 17.742 11.916C17.742 12.7653 17.4107 13.4327 16.748 13.918ZM14.872 10.712H12.59V13.288H14.872C15.2267 13.288 15.5253 13.1667 15.768 12.924C16.0107 12.672 16.132 12.364 16.132 12C16.132 11.636 16.0107 11.3327 15.768 11.09C15.5253 10.838 15.2267 10.712 14.872 10.712ZM15.18 17.488C15.5533 17.488 15.866 17.3573 16.118 17.096C16.3793 16.8253 16.51 16.4987 16.51 16.116C16.51 15.7333 16.3793 15.4113 16.118 15.15C15.866 14.8793 15.5533 14.744 15.18 14.744H12.59V17.488H15.18ZM25.0393 12H26.5513V19H25.0393V17.992C24.4699 18.7853 23.6533 19.182 22.5893 19.182C21.6279 19.182 20.8066 18.8273 20.1253 18.118C19.4439 17.3993 19.1033 16.5267 19.1033 15.5C19.1033 14.464 19.4439 13.5913 20.1253 12.882C20.8066 12.1727 21.6279 11.818 22.5893 11.818C23.6533 11.818 24.4699 12.21 25.0393 12.994V12ZM21.2453 17.11C21.6653 17.53 22.1926 17.74 22.8273 17.74C23.4619 17.74 23.9893 17.53 24.4093 17.11C24.8293 16.6807 25.0393 16.144 25.0393 15.5C25.0393 14.856 24.8293 14.324 24.4093 13.904C23.9893 13.4747 23.4619 13.26 22.8273 13.26C22.1926 13.26 21.6653 13.4747 21.2453 13.904C20.8253 14.324 20.6153 14.856 20.6153 15.5C20.6153 16.144 20.8253 16.6807 21.2453 17.11ZM31.6176 19.182C30.563 19.182 29.681 18.8273 28.9716 18.118C28.2716 17.4087 27.9216 16.536 27.9216 15.5C27.9216 14.4547 28.2716 13.582 28.9716 12.882C29.681 12.1727 30.563 11.818 31.6176 11.818C32.299 11.818 32.9196 11.9813 33.4796 12.308C34.0396 12.6347 34.4596 13.0733 34.7396 13.624L33.4376 14.38C33.279 14.044 33.0363 13.7827 32.7096 13.596C32.3923 13.4 32.0236 13.302 31.6036 13.302C30.9876 13.302 30.4696 13.512 30.0496 13.932C29.639 14.352 29.4336 14.8747 29.4336 15.5C29.4336 16.1253 29.639 16.648 30.0496 17.068C30.4696 17.488 30.9876 17.698 31.6036 17.698C32.0143 17.698 32.383 17.6 32.7096 17.404C33.0456 17.208 33.2976 16.9467 33.4656 16.62L34.7676 17.362C34.469 17.922 34.0396 18.3653 33.4796 18.692C32.9196 19.0187 32.299 19.182 31.6176 19.182ZM42.0485 19H40.2425L37.3725 15.766V19H35.8605V9.2H37.3725V15.094L40.0885 12H41.9365L38.8565 15.43L42.0485 19Z" fill="#1A1A1A"/>
</svg>
