<svg width="32" height="30" viewBox="0 0 32 30" fill="none" xmlns="http://www.w3.org/2000/svg">
<path d="M10 11.5V10.5C10 10.3674 10.0527 10.2402 10.1464 10.1464C10.2402 10.0527 10.3674 10 10.5 10H12.5M10 16V14M12.5 20H10.5C10.3674 20 10.2402 19.9473 10.1464 19.8536C10.0527 19.7598 10 19.6326 10 19.5V18.5M17 20H15M22 18.5V19.5C22 19.6326 21.9473 19.7598 21.8536 19.8536C21.7598 19.9473 21.6326 20 21.5 20H19.5M22 14V16M19.5 10H21.5C21.6326 10 21.7598 10.0527 21.8536 10.1464C21.9473 10.2402 22 10.3674 22 10.5V11.5M15 10H17" stroke="#A9A9A9" stroke-linecap="round" stroke-linejoin="round"/>
</svg>