<?xml version="1.0" encoding="iso-8859-1"?>
<!-- Uploaded to: SVG Repo, www.svgrepo.com, Generator: SVG Repo Mixer Tools -->
<!DOCTYPE svg PUBLIC "-//W3C//DTD SVG 1.1//EN" "http://www.w3.org/Graphics/SVG/1.1/DTD/svg11.dtd">
<svg fill="#000000" version="1.1" id="Capa_1" xmlns="http://www.w3.org/2000/svg" xmlns:xlink="http://www.w3.org/1999/xlink" 
	 width="800px" height="800px" viewBox="0 0 414.838 414.838"
	 xml:space="preserve">
<g>
	<g>
		<g>
			<path d="M411.477,202.353c-7.347-3.104-30.051-9.218-99.557-15.302c-50.57-4.426-110.493-7.4-149.111-7.4
				c-20.387,0-40.893,0.906-59.302,2.619c-1.776,0.166-3.362,1.182-4.254,2.727s-0.978,3.427-0.233,5.048
				c2.737,5.95,4.125,12.586,4.125,19.726c0,5.851-0.742,11.195-2.204,15.89c-0.495,1.588-0.245,3.313,0.681,4.694
				c0.925,1.384,2.426,2.271,4.083,2.418c17.793,1.58,37.539,2.416,57.104,2.419h0.001c38.622,0,98.545-2.977,149.111-7.401
				c69.504-6.084,92.209-12.199,99.557-15.304c2.036-0.859,3.36-2.854,3.36-5.065C414.836,205.209,413.513,203.212,411.477,202.353z
				"/>
			<path d="M51.158,239.081c4.792,1.752,9.499,2.641,13.993,2.641l0,0c5.31,0,12.849-1.302,18.616-7.508
				c5.17-5.563,7.792-13.789,7.792-24.445c0-21.581-14.946-36.653-36.345-36.653c-19.618,0-39.384,12.24-54.229,33.583
				c-1.13,1.625-1.301,3.732-0.444,5.517c0.854,1.785,2.603,2.973,4.577,3.11c9.563,0.665,16.086,5.409,23.641,10.902
				C34.8,230.623,41.648,235.604,51.158,239.081z"/>
			<path d="M389.871,233.169c-1.238-1.045-2.875-1.496-4.468-1.221c-6.975,1.182-15.002,2.354-23.865,3.485
				c-2.746,0.353-4.804,2.688-4.804,5.457v91.938H56.076v-74.778c0-2.497-1.682-4.68-4.096-5.317
				c-1.746-0.462-3.5-1.014-5.216-1.641c-5.878-2.148-11.531-5.01-17.282-8.747c-1.69-1.099-3.847-1.184-5.62-0.222
				c-1.772,0.962-2.876,2.816-2.876,4.834v115.461c0,3.038,2.462,5.5,5.5,5.5h359.835c3.038,0,5.5-2.462,5.5-5.5V237.371
				C391.822,235.752,391.108,234.214,389.871,233.169z"/>
			<path d="M23.5,165.791c1.567,1.013,3.541,1.163,5.242,0.398c7.274-3.271,14.75-5.194,22.219-5.717
				c2.882-0.202,5.116-2.598,5.116-5.486V82.008h300.657v91.939c0,2.769,2.058,5.105,4.804,5.456
				c8.854,1.13,16.884,2.304,23.865,3.487c0.306,0.052,0.611,0.078,0.919,0.078c1.29,0,2.549-0.454,3.549-1.298
				c1.237-1.045,1.951-2.582,1.951-4.202V52.419c0-3.038-2.462-5.5-5.5-5.5H26.486c-3.038,0-5.5,2.462-5.5,5.5v108.753
				C20.986,163.039,21.933,164.777,23.5,165.791z"/>
			<path d="M73.248,136.668c0,19.736,16.057,35.792,35.792,35.792c19.736,0,35.793-16.057,35.793-35.792
				s-16.057-35.792-35.793-35.792C89.305,100.876,73.248,116.932,73.248,136.668z"/>
			<path d="M170.612,136.668c0,19.736,16.056,35.792,35.792,35.792s35.792-16.057,35.792-35.792s-16.057-35.792-35.792-35.792
				S170.612,116.932,170.612,136.668z"/>
			<path d="M267.975,136.668c0,19.736,16.059,35.792,35.793,35.792c19.736,0,35.793-16.057,35.793-35.792
				s-16.057-35.792-35.793-35.792C284.032,100.876,267.975,116.932,267.975,136.668z"/>
			<path d="M73.248,278.169c0,19.736,16.057,35.792,35.792,35.792c19.736,0,35.793-16.058,35.793-35.792
				s-16.057-35.792-35.793-35.792C89.305,242.377,73.248,258.435,73.248,278.169z"/>
			<path d="M242.195,278.169c0-19.736-16.057-35.792-35.792-35.792s-35.792,16.056-35.792,35.792s16.056,35.792,35.792,35.792
				C226.14,313.962,242.195,297.905,242.195,278.169z"/>
			<path d="M339.561,278.169c0-19.736-16.057-35.792-35.793-35.792c-19.734,0-35.793,16.056-35.793,35.792
				s16.059,35.792,35.793,35.792C323.504,313.961,339.561,297.905,339.561,278.169z"/>
		</g>
	</g>
</g>
</svg>